<mxfile host="app.diagrams.net" modified="2023-09-12T04:01:04.427Z" agent="Mozilla/5.0 (Windows NT 10.0; Win64; x64) AppleWebKit/537.36 (KHTML, like Gecko) Chrome/116.0.0.0 Safari/537.36" version="21.7.4" etag="0rpHwrM933tkDK5DrTxj" type="github">
  <diagram name="페이지-1" id="KtwshJ8Y9jvCWXr98sJ1">
    <mxGraphModel>
      <root>
        <mxCell id="0" />
        <mxCell id="1" parent="0" />
      </root>
    </mxGraphModel>
  </diagram>
</mxfile>
